<svg width="10" height="18" viewBox="0 0 10 18" fill="none" xmlns="http://www.w3.org/2000/svg">
<path d="M5.0325 8.11741C5.05 5.94754 5.06404 3.77767 5.0877 1.6078C5.09251 1.17531 5.12634 0.74218 5.16852 0.311434C5.17624 0.240172 5.2052 0.172913 5.25163 0.11844C5.29805 0.0639672 5.35977 0.0248242 5.42872 0.00612875C5.53911 -0.0292457 5.6957 0.0937351 5.71872 0.240614C5.74112 0.383062 5.77566 0.52479 5.78425 0.66795C5.83945 1.58223 5.91759 2.49643 5.93407 3.41158C5.96774 5.29173 5.97617 7.17243 5.97829 9.05298C5.98035 10.8371 5.95819 12.6214 5.95401 14.4055C5.95338 14.692 5.98926 14.9786 6.01473 15.2646C6.0194 15.2836 6.02875 15.3011 6.04191 15.3155C6.05506 15.3299 6.07161 15.3408 6.09003 15.3471C6.13411 15.3522 6.2083 15.3392 6.22407 15.3098C6.5211 14.7616 6.8335 14.22 7.09851 13.6562C7.71495 12.3447 8.47096 11.1144 9.22949 9.88487C9.35415 9.68283 9.48078 9.47106 9.72813 9.38954C9.77315 9.37475 9.85026 9.35164 9.86532 9.37047C9.92798 9.43793 9.97303 9.5199 9.99646 9.60908C10.0076 9.70404 9.9923 9.80025 9.95222 9.887C9.81352 10.1942 9.66883 10.4992 9.51334 10.7981C8.40204 12.9344 7.28412 15.0672 6.17581 17.205C5.75791 18.0114 5.35264 18.3946 4.43381 17.4266C4.16903 17.1477 3.90449 16.8656 3.66896 16.5623C2.57559 15.1559 1.48889 13.7443 0.408869 12.3276C0.26964 12.1328 0.145729 11.9274 0.0382719 11.7133C-0.0372656 11.5736 0.00760216 11.4337 0.098121 11.3131C0.197865 11.1804 0.487877 11.098 0.615376 11.1438C0.898445 11.2455 1.10612 11.4481 1.29418 11.6656C2.01817 12.5033 2.73694 13.3455 3.45047 14.1921C3.91679 14.7423 4.37624 15.2982 4.8435 15.8475C4.8666 15.8746 4.93812 15.876 4.98117 15.865C4.9998 15.8578 5.01641 15.8461 5.02956 15.831C5.04272 15.816 5.05204 15.7979 5.05671 15.7784C5.07555 15.4914 5.09937 15.2037 5.09787 14.9164C5.08594 12.65 5.07106 10.3836 5.05324 8.11717L5.0325 8.11741Z" fill="black"/>
</svg>
