<svg width="31" height="20" viewBox="0 0 31 20" fill="none" xmlns="http://www.w3.org/2000/svg">
<path d="M15.0402 16.7262C16.492 14.8912 17.7937 13.2584 19.0843 11.6158C21.1978 8.92554 23.2626 6.19506 25.4338 3.55278C26.3391 2.45116 27.4593 1.52417 28.4979 0.534857C28.9438 0.109951 29.5177 -0.261023 30.0551 0.242807C30.652 0.801905 30.2762 1.4121 29.812 1.87879C24.8157 6.89918 21.3877 13.114 17.0413 18.6299C15.7604 20.2552 14.6818 20.467 13.0971 19.0908C12.5891 18.6648 12.113 18.2022 11.6723 17.7069C8.58106 14.1067 5.46011 10.5301 2.45526 6.8587C1.49049 5.67993 0.826186 4.25003 0.075416 2.90634C-0.0523653 2.6773 -0.000649334 2.07377 0.103698 2.03796C0.486821 1.90532 1.04723 1.76005 1.3249 1.94442C2.41701 2.67021 3.56484 3.39335 4.44008 4.3484C6.55267 6.65355 8.51825 9.09289 10.5541 11.4686C11.7515 12.866 12.9727 14.2428 14.1769 15.6345C14.4397 15.9389 14.6774 16.2665 15.0402 16.7262Z" fill="black"/>
</svg>
