<svg width="40" height="40" viewBox="0 0 40 40" fill="none" xmlns="http://www.w3.org/2000/svg">
<path d="M39.8442 25.066C39.7955 23.8998 39.7444 22.2513 39.6902 20.5058C39.6076 17.8365 39.5137 14.8112 39.4102 12.9968C39.3063 11.1698 39.1573 8.76512 38.9306 6.36395C38.6042 2.90482 35.82 0.400971 32.1603 0.274895C29.4297 0.18103 26.6531 0.141885 23.9662 0.103785H23.9398C23.1728 0.0927009 22.3928 0.0996177 21.6388 0.106025C20.3978 0.116243 19.1152 0.127156 17.8587 0.0608273C15.0146 -0.0896676 12.0004 0.0363931 8.08454 0.469174C5.55054 0.749209 3.64484 1.49321 2.08673 2.81043C0.810722 3.88918 0.188838 5.13903 0.185721 6.63116C0.184509 7.12525 0.17463 7.6209 0.156273 8.10494C0.140167 8.53599 0.11073 8.97589 0.0821546 9.40123C0.0021053 10.3061 -0.0194799 11.2152 0.0175497 12.1229C0.212726 15.2087 0.519778 21.9738 0.282692 25.4925C0.198699 26.7407 0.221732 28.0155 0.243899 29.248L0.248762 29.5251C0.255031 31.4539 0.573598 33.3688 1.19209 35.1958C1.83009 37.0161 3.06799 38.1226 4.8715 38.485C6.00125 38.7201 7.14782 38.8653 8.30049 38.9193C10.4542 39.0071 12.6448 39.056 14.7636 39.1033C15.6233 39.1224 16.483 39.1425 17.3428 39.1634L17.4282 39.1386L18.1689 39.1365H19.8141L20.7178 39.1379C24.2795 39.1439 27.9642 39.1524 31.5581 38.5892C32.809 38.3932 34.2698 38.1196 35.6216 37.5763C38.3177 36.4927 39.7726 34.4953 39.946 31.639C40.0584 29.7859 39.9732 27.9195 39.8909 26.1145C39.8744 25.7649 39.8588 25.4154 39.8442 25.066ZM2.44419 23.0398L2.43292 22.5537C2.37975 20.2285 2.26893 15.3902 2.13662 13.3538C2.00586 11.3448 1.92636 8.69515 2.47535 6.02122L2.48072 6.00165C2.49047 5.97423 2.49471 5.94517 2.49319 5.91611C2.36175 4.36111 3.4573 3.76017 4.6171 3.12373L4.6564 3.10208C5.77152 2.49023 7.00059 2.27842 8.16403 2.11356C10.8005 1.76706 13.4581 1.6065 16.1171 1.63312C17.2237 1.63312 18.3147 1.65132 19.3847 1.67384C21.3267 1.71471 23.3015 1.74122 25.2112 1.76685C26.8843 1.78937 28.6142 1.81255 30.3154 1.84545C31.1059 1.85496 31.8948 1.92246 32.6755 2.04739C35.5091 2.51931 37.076 4.36076 37.2071 7.37222C37.3027 9.56297 37.3911 12.6264 37.4764 15.5892C37.5556 18.332 37.6375 21.1682 37.7227 23.2157C37.7497 23.8652 37.787 24.5248 37.8228 25.1627C37.8791 26.1635 37.9373 27.1988 37.9579 28.2167C37.9825 29.4217 37.9156 30.656 37.8451 31.817C37.7404 33.5391 36.7411 34.7611 34.8749 35.45C33.7463 35.8462 32.5798 36.1248 31.3939 36.2813C27.4118 36.8755 23.3273 36.8486 19.3784 36.8231L18.8568 36.8199C18.6524 36.8185 18.4481 36.819 18.2436 36.8199H17.8674L17.8658 36.8876C16.9913 36.8653 16.1166 36.8435 15.2418 36.8221C12.7106 36.76 10.0933 36.6955 7.5198 36.611C6.8524 36.5707 6.18913 36.4786 5.53599 36.3356L5.4236 36.314C4.30814 36.1006 3.56189 35.4124 3.20687 34.268C2.67824 32.5184 2.41371 30.6997 2.42201 28.872C2.4163 28.0399 2.42807 27.1922 2.43933 26.3741C2.45422 25.2806 2.46895 24.1506 2.44349 23.0393L2.44419 23.0398Z" fill="black"/>
<path d="M9.63318 20.0854C9.77554 20.0986 9.91796 20.1123 10.0604 20.1265C10.6456 20.1838 11.2505 20.243 11.8484 20.2508C14.2327 20.2818 17.6079 20.3059 20.8711 20.3292C23.3996 20.3466 25.7876 20.3639 27.6174 20.3836C27.7509 20.3886 27.8839 20.402 28.0157 20.4238L28.1053 20.4363C28.0653 20.4794 28.0275 20.5204 27.9915 20.5596C27.8613 20.7009 27.7532 20.8182 27.6408 20.9309C26.0595 22.5413 24.7378 24.3875 23.7229 26.4034L23.6905 26.4653C23.5901 26.6399 23.5109 26.826 23.4548 27.0194C23.4359 27.1342 23.4438 27.2517 23.4779 27.3628C23.4879 27.4077 23.4978 27.4524 23.5038 27.4962L23.5163 27.5871L23.6063 27.5698C23.6591 27.5606 23.7123 27.5541 23.7657 27.5502C23.9018 27.5535 24.0355 27.5142 24.1481 27.4377C24.273 27.3199 24.3853 27.1893 24.483 27.048C24.5585 26.9415 24.641 26.84 24.73 26.7444C25.4549 26.0032 26.1812 25.2634 26.9089 24.5251C27.8521 23.5668 28.7934 22.6069 29.7328 21.6453C30.1503 21.2438 30.5267 20.8016 30.8564 20.3254C31.3268 19.5953 31.2548 18.9878 30.6173 18.2944C30.0046 17.6283 29.3629 16.9068 28.6556 16.0889C28.1409 15.4933 27.6286 14.8956 27.1185 14.2958C26.5643 13.646 26.008 12.9976 25.4497 12.3506C25.2364 12.0902 24.9863 11.8623 24.7073 11.6741C24.5403 11.5702 24.1796 11.556 24.039 11.6859C23.9621 11.7781 23.9104 11.8885 23.8887 12.0065C23.8671 12.1245 23.8762 12.2461 23.9153 12.3596C24.0663 12.6364 24.2454 12.8969 24.4496 13.1372C24.4949 13.1941 24.54 13.251 24.5843 13.3081C25.2269 14.137 25.8703 14.9653 26.5144 15.7931C27.2649 16.7581 28.0145 17.7234 28.7632 18.6892C28.8249 18.7751 28.8793 18.866 28.9258 18.9609C28.9372 18.9826 28.9494 19.0049 28.9618 19.0283C28.5481 19.008 28.1416 18.9873 27.74 18.9667C26.7494 18.9161 25.8136 18.8681 24.8652 18.8317C22.8487 18.7548 19.9032 18.68 17.0547 18.6078C14.6026 18.5453 12.2867 18.4866 10.5855 18.4277C10.2521 18.4195 9.91875 18.4431 9.58989 18.4984C9.08766 18.5782 8.83273 18.8366 8.83325 19.2666C8.83308 19.7468 9.11745 20.0374 9.63318 20.0854Z" fill="black"/>
</svg>
