<svg width="40" height="40" viewBox="0 0 40 40" fill="none" xmlns="http://www.w3.org/2000/svg">
<path d="M39.8442 25.0654C39.7955 23.8992 39.7445 22.2507 39.6904 20.5053C39.6077 17.836 39.5138 14.8108 39.4102 12.9964C39.3063 11.1657 39.1567 8.75751 38.9309 6.36366C38.6043 2.90459 35.8201 0.400787 32.1596 0.274713C29.4293 0.18085 26.6515 0.141705 23.9655 0.103606H23.9393C23.1721 0.0925227 22.3925 0.0994394 21.6383 0.105847C20.3978 0.116065 19.1149 0.12715 17.8583 0.0606497C15.0139 -0.0894963 11.9999 0.0363891 8.08445 0.46899C5.55068 0.74902 3.64485 1.493 2.08694 2.8102C0.810956 3.88893 0.189067 5.13876 0.185776 6.63087C0.184564 7.1201 0.174859 7.61591 0.156328 8.10462C0.140223 8.53515 0.110955 8.97452 0.0823808 9.39915C0.00210225 10.3046 -0.0195366 11.2143 0.0176079 12.1225C0.21278 15.2082 0.519844 21.9733 0.282936 25.4919C0.198598 26.7433 0.221804 28.0203 0.244144 29.2567L0.248816 29.5239C0.255033 31.4526 0.573596 33.3676 1.19212 35.1945C1.83011 37.0147 3.06816 38.1212 4.87147 38.4836C6.0012 38.7187 7.14775 38.8639 8.3004 38.918C10.4539 39.0058 12.6448 39.0546 14.7634 39.1019C15.6231 39.1211 16.4828 39.1411 17.3424 39.162L17.428 39.1372L18.1685 39.1351C18.7168 39.1351 19.2652 39.1351 19.8137 39.1351L20.7173 39.1365C24.2789 39.1426 27.9638 39.1511 31.5583 38.5879C32.8088 38.3918 34.2698 38.1184 35.6218 37.575C38.318 36.4914 39.7727 34.4938 39.9459 31.6377C40.0584 29.7847 39.9732 27.9168 39.891 26.1111C39.8747 25.7624 39.8591 25.4138 39.8442 25.0654ZM2.4449 23.0392L2.4338 22.5531C2.38046 20.228 2.26964 15.3898 2.13733 13.3533C2.00641 11.3445 1.92674 8.69482 2.47606 6.02094L2.48143 6.00137C2.49118 5.97395 2.49542 5.94489 2.4939 5.91583C2.36263 4.36086 3.458 3.75993 4.61777 3.12349L4.65724 3.10185C5.77217 2.49001 7.0014 2.27821 8.16464 2.11334C10.801 1.76685 13.4585 1.6063 16.1174 1.63291C17.224 1.63291 18.3153 1.65112 19.3852 1.67363C21.3271 1.7145 23.302 1.74102 25.2115 1.76665C26.8846 1.78916 28.6144 1.81234 30.3157 1.84524C31.1063 1.85475 31.8951 1.92225 32.6758 2.04717C35.5092 2.51909 37.0763 4.36051 37.2074 7.37191C37.3028 9.56418 37.3913 12.6303 37.4767 15.5953C37.5557 18.3355 37.6374 21.1692 37.7226 23.2151C37.7498 23.8649 37.7868 24.5249 37.8229 25.1632C37.8793 26.1637 37.9373 27.1985 37.9581 28.2161C37.9824 29.4231 37.9155 30.6565 37.8452 31.8162C37.7413 33.5382 36.7412 34.7603 34.875 35.4492C33.7465 35.8454 32.58 36.124 31.3941 36.2805C27.4122 36.8746 23.3289 36.8483 19.379 36.8223L18.8576 36.8191C18.6534 36.8177 18.4487 36.8182 18.2443 36.8191H17.8687L17.8666 36.8868C16.9918 36.8645 16.1171 36.8427 15.2425 36.8213C12.7111 36.7591 10.0939 36.6947 7.52059 36.6102C6.85343 36.57 6.1904 36.4779 5.53751 36.3348L5.42443 36.3132C4.30899 36.0998 3.56275 35.4116 3.20687 34.2673C2.67819 32.5177 2.41366 30.699 2.42203 28.8714C2.41631 28.0392 2.42826 27.1915 2.43934 26.3734C2.45475 25.28 2.47053 24.15 2.4449 23.0387V23.0392Z" fill="black"/>
<path d="M11.3387 23.0736C11.8534 23.6689 12.3658 24.2666 12.8759 24.8665C13.43 25.5162 13.9863 26.1646 14.5446 26.8116C14.7578 27.072 15.0079 27.2999 15.287 27.488C15.3934 27.545 15.5128 27.5732 15.6334 27.5699C15.7485 27.5775 15.8626 27.5444 15.9557 27.4763C16.0325 27.3841 16.0842 27.2737 16.1059 27.1557C16.1276 27.0377 16.1184 26.916 16.0793 26.8026C15.9283 26.5258 15.7493 26.2653 15.5451 26.025C15.4997 25.9681 15.4547 25.9112 15.4103 25.8541C14.7675 25.0253 14.1241 24.197 13.4803 23.3693C12.7298 22.4043 11.9802 21.4388 11.2315 20.4731C11.1699 20.3872 11.1155 20.2964 11.0689 20.2016C11.0575 20.1799 11.0454 20.1574 11.0329 20.134C11.4466 20.1543 11.8531 20.1751 12.2547 20.1957C13.2453 20.2462 14.1811 20.2942 15.1295 20.3306C17.1459 20.4074 20.0914 20.4825 22.9398 20.5547C25.3918 20.617 27.7078 20.6759 29.4089 20.7346C29.7422 20.7423 30.0756 20.7186 30.4045 20.6639C30.9067 20.5841 31.1615 20.3254 31.1611 19.8957C31.1611 19.4155 30.8764 19.1249 30.3605 19.0769C30.2184 19.0637 30.076 19.0501 29.9335 19.0359C29.3483 18.9786 28.7434 18.9193 28.1455 18.9116C25.7612 18.8807 22.3861 18.8565 19.1229 18.8331C16.5945 18.8158 14.2066 18.7985 12.3768 18.7787C12.2433 18.7738 12.1102 18.7604 11.9785 18.7385L11.8889 18.7261C11.9289 18.6829 11.9667 18.6419 12.0027 18.6028C12.1329 18.4615 12.241 18.3442 12.3534 18.2316C13.9346 16.6212 15.2563 14.7751 16.2712 12.7592L16.3036 12.6975C16.404 12.5229 16.4831 12.3368 16.5393 12.1434C16.5582 12.0286 16.5503 11.911 16.5161 11.7998C16.5062 11.7549 16.4963 11.7103 16.4903 11.6666L16.4778 11.5757L16.3878 11.593C16.3377 11.6027 16.283 11.6076 16.2286 11.6124C16.0925 11.6092 15.9587 11.6485 15.8461 11.725C15.7211 11.8428 15.6088 11.9734 15.5111 12.1146C15.4356 12.2212 15.3531 12.3226 15.2642 12.4182C14.5368 13.1617 13.8083 13.9037 13.0785 14.6441C12.1378 15.6 11.1988 16.5578 10.2614 17.5173C9.84393 17.9188 9.46753 18.3609 9.13781 18.8371C8.66746 19.5672 8.7395 20.1747 9.3768 20.8681C9.98985 21.534 10.6315 22.2555 11.3387 23.0736Z" fill="black"/>
</svg>
