<svg width="20" height="41" viewBox="0 0 20 41" fill="none" xmlns="http://www.w3.org/2000/svg">
<g clip-path="url(#clip0_12_552)">
<path d="M14.7105 2.20204C14.5824 1.92641 14.4542 1.65066 14.3315 1.374C14.0802 0.807921 13.6107 0.407654 12.8543 0.114281C12.7472 0.0629317 12.6303 0.0352247 12.5116 0.033025C12.3929 0.0308255 12.2751 0.0541472 12.1662 0.101495C12.0719 0.154937 11.9902 0.228259 11.927 0.316326C11.8637 0.404395 11.8203 0.505098 11.7998 0.611573C11.7119 0.965933 11.6675 1.3297 11.6676 1.69481C11.6543 2.57545 11.6479 3.45624 11.6417 4.33688C11.6308 5.81409 11.62 7.34184 11.5742 8.84213C11.5093 10.9783 11.4249 13.1487 11.3434 15.2485C11.2588 17.4277 11.171 19.6813 11.1048 21.8982C10.9934 25.6316 10.9107 29.4279 10.8308 33.0995L10.7648 36.1085C10.7447 37.0243 10.7453 37.9776 10.7672 38.942C10.7506 39.2962 10.8235 39.649 10.979 39.9677C11.0763 40.1293 11.4286 40.6643 11.8785 40.7601C11.9358 40.7723 11.9941 40.7785 12.0527 40.7787C12.5219 40.7787 12.8451 40.3544 12.9559 39.9162C13.0477 39.5325 13.0935 39.1392 13.0923 38.7447C13.1038 37.122 13.1116 35.4992 13.1154 33.8764C13.1187 32.8793 13.1225 31.8822 13.1268 30.885C13.1278 30.6791 13.1414 30.4753 13.1569 30.2391C13.1612 30.1737 13.1656 30.1063 13.1699 30.0365C13.626 30.0365 14.0775 30.0388 14.5242 30.0433C15.6976 30.0508 16.8056 30.0584 17.935 30.0245C19.2399 29.9852 19.7178 29.4963 19.7611 28.1557C19.7636 27.9411 19.753 27.7262 19.7287 27.513L19.7135 27.3431C19.688 27.0372 19.6603 26.7317 19.6324 26.4261C19.5807 25.8633 19.5278 25.2811 19.4932 24.7088L19.456 24.0859C19.2837 21.1886 19.104 18.1927 18.4396 15.3067C17.7112 12.1465 16.8564 8.80721 15.7499 4.79834C15.4754 3.90581 15.1278 3.03739 14.7105 2.20204ZM17.6046 27.7474H13.259C13.2182 24.9718 13.3019 22.0767 13.3829 19.2754C13.4185 18.0409 13.4554 16.7647 13.4818 15.5068C13.5417 12.6176 13.5998 9.72845 13.6562 6.83916L13.7096 4.14964C15.7539 11.0826 17.7185 19.2062 17.6043 27.7474H17.6046Z" fill="black"/>
<path d="M1.81868 6.86834C1.71945 5.98977 1.67517 5.0887 1.63228 4.2165C1.61264 3.81253 1.59283 3.40853 1.56768 3.0049C1.55723 2.8347 1.54721 2.66451 1.53756 2.49431C1.50569 1.93719 1.47257 1.36141 1.41021 0.795852C1.38666 0.666533 1.32905 0.545751 1.24333 0.4461C1.1576 0.346449 1.04686 0.27153 0.922509 0.228914C0.70614 0.186191 0.499791 0.414687 0.33269 0.599359C0.235224 0.726617 0.181693 0.882021 0.18044 1.04231C0.163214 1.61252 0.144058 2.18268 0.124419 2.75289C0.0704993 4.30331 0.0146061 5.90541 0.0271818 7.48287C0.036383 8.04397 0.169313 8.59611 0.416469 9.09993C0.663625 9.60373 1.01888 10.0468 1.45698 10.3975C1.89883 10.7415 2.37371 11.0409 2.8745 11.2915C3.08122 11.4043 3.29456 11.5202 3.51024 11.6458C3.48939 12.2446 3.46407 12.8482 3.43857 13.4546C3.37966 14.8577 3.31805 16.3084 3.31358 17.7468C3.29497 22.9011 3.29804 28.1417 3.30114 33.2095C3.30227 35.1232 3.30319 37.0368 3.30365 38.9504C3.30365 39.0151 3.30352 39.0803 3.30231 39.1452C3.30041 39.3457 3.2984 39.5528 3.31476 39.7592C3.3723 40.4812 3.7791 40.9587 4.33122 40.9587C4.34207 40.9587 4.35267 40.9587 4.36352 40.9587C4.93873 40.9396 5.31584 40.4431 5.32463 39.6935C5.32928 39.2816 5.31732 38.8646 5.30595 38.4613C5.29596 38.1118 5.28557 37.7507 5.28626 37.3963C5.29579 32.8564 5.30785 28.3167 5.32244 23.7769L5.33269 20.1707C5.33441 19.5836 5.33575 18.9965 5.33656 18.4094C5.33915 16.8441 5.34208 15.226 5.35775 13.6348C5.36292 13.119 5.39736 12.5924 5.4306 12.083C5.44353 11.8842 5.45641 11.6854 5.46778 11.4865C7.22871 10.8518 8.27897 9.5758 8.86572 7.36714C9.42921 5.24548 9.45153 3.14032 9.39985 1.36077L9.39834 1.29651C9.39489 1.10856 9.39064 0.874186 9.25299 0.73327C9.00717 0.481586 8.71903 0.211652 8.40274 0.194425C8.10282 0.177199 7.76082 0.538922 7.63006 0.806283C7.54457 1.01768 7.50555 1.24501 7.51566 1.47282C7.51325 1.5605 7.51117 1.64815 7.50221 1.73257C7.4569 2.17203 7.4175 2.61252 7.37823 3.05319C7.28572 4.0868 7.19019 5.15487 7.01569 6.18951C6.9025 6.85895 6.61607 7.52236 6.33889 8.16389C6.28428 8.29051 6.22978 8.41699 6.17655 8.54291C6.1234 8.68006 6.04261 8.8049 5.93916 8.90948C5.83573 9.01407 5.71185 9.09622 5.57528 9.1509C5.57459 9.05271 5.5739 8.95634 5.57309 8.8617C5.56999 8.51216 5.56694 8.18198 5.57814 7.85501C5.58882 7.54389 5.60124 7.23277 5.61364 6.92166C5.68513 5.13885 5.75891 3.29526 5.48191 1.47938C5.45658 1.19373 5.37203 0.916542 5.23377 0.665305C5.15125 0.567601 5.04657 0.491174 4.92827 0.442567C4.80997 0.393959 4.68167 0.374586 4.55429 0.386042C4.29503 0.412054 4.122 0.773969 4.09013 0.846322C4.04663 0.966123 4.03235 1.09455 4.04858 1.22097C4.05099 1.26387 4.05349 1.30715 4.05211 1.34832C4.03109 1.92117 4.01047 2.49407 3.99037 3.06714C3.93559 4.6136 3.87894 6.21274 3.81004 7.78452C3.79281 8.16351 3.74332 8.54245 3.69026 8.94211C3.67441 9.06029 3.6588 9.17934 3.64364 9.30028C2.55215 8.86633 1.95408 8.06871 1.81868 6.86834Z" fill="black"/>
</g>
<defs>
<clipPath id="clip0_12_552">
<rect width="19.8109" height="41" fill="white"/>
</clipPath>
</defs>
</svg>
