<svg width="26" height="30" viewBox="0 0 26 30" fill="none" xmlns="http://www.w3.org/2000/svg">
<g clip-path="url(#clip0_12_538)">
<path d="M2.29097 6.86861C1.82559 6.79375 1.44072 6.74944 1.0641 6.66728C0.389838 6.52031 0.0450261 6.19335 0.0367698 5.73152C0.0282384 5.24656 0.386794 4.83178 1.08486 4.74302C2.0818 4.61628 3.09117 4.58078 4.09636 4.53028C4.6399 4.50276 5.18587 4.52546 5.81514 4.52546C5.7239 4.10464 5.65858 3.77683 5.58125 3.45205C5.4183 2.80143 5.50492 2.11334 5.824 1.52339C6.25057 0.704578 6.90061 0.205736 7.8282 0.174773C9.52229 0.118258 11.217 0.0864275 12.9125 0.0792715C14.0349 0.0739046 15.1576 0.126186 16.28 0.152884C16.4403 0.156737 16.6012 0.15605 16.7609 0.167885C17.9058 0.25238 18.6384 0.84013 18.9016 1.96196C19.0208 2.4699 19.0361 3.00289 19.0895 3.52556C19.117 3.79528 19.125 4.06692 19.1445 4.37875C19.3292 4.40662 19.5154 4.42361 19.7021 4.42967C20.9387 4.39472 22.175 4.34325 23.4118 4.31628C23.7303 4.30256 24.0493 4.33462 24.3587 4.41152C24.6073 4.46965 24.8305 4.6062 24.9953 4.801C25.1603 4.99578 25.2581 5.23846 25.2744 5.49316C25.3172 5.75575 25.2778 6.02513 25.1619 6.26457C25.0459 6.50402 24.8589 6.70187 24.6264 6.8312C24.4344 6.94817 24.2239 7.03458 23.9851 7.1532C23.9851 7.82008 23.9624 8.48147 23.9889 9.14079C24.1459 13.0528 24.3618 16.9642 24.2163 20.8807C24.1638 22.297 24.0678 23.7178 23.8742 25.1203C23.7668 25.8994 23.4529 26.6587 23.1672 27.402C23.0321 27.7584 22.8187 28.0799 22.5426 28.3427C22.2667 28.6057 21.9351 28.8032 21.5727 28.9208C20.903 29.1505 20.2153 29.3243 19.517 29.4402C18.8804 29.5218 18.2399 29.5671 17.5984 29.5759C15.1043 29.6997 12.611 29.8467 10.1156 29.9275C9.06358 29.9722 8.00967 29.9267 6.96542 29.7915C4.27898 29.4135 2.81883 27.933 2.39364 25.2443C2.26766 24.4995 2.19761 23.7462 2.18408 22.991C2.15564 18.664 2.14534 14.3368 2.15324 10.0097C2.15462 8.98253 2.24088 7.95508 2.29097 6.86861ZM4.34806 7.03582C4.4719 9.17173 4.56364 19.629 4.81105 22.7777C4.88398 23.7062 5.09783 24.6259 5.28085 25.5429C5.46331 26.457 6.08101 26.9886 6.9665 27.1317C7.95725 27.2917 8.96495 27.446 9.96395 27.4386C12.4602 27.42 14.9568 27.334 17.451 27.2212C18.406 27.1779 19.3561 26.9985 20.3053 26.8592C20.4783 26.8375 20.6401 26.7617 20.7674 26.6426C20.8948 26.5234 20.9813 26.3671 21.0146 26.1959C21.146 25.6649 21.3159 25.1363 21.3787 24.5962C21.739 21.4939 21.6649 18.3801 21.5696 15.2674C21.4947 12.8197 21.4074 10.3723 21.3247 7.92481C21.3171 7.70462 21.302 7.48361 21.2918 7.29109C15.452 7.20591 10.2369 7.12183 4.34845 7.03582H4.34806ZM8.02204 4.47618C10.9006 4.58036 13.722 4.57582 16.5617 4.44329V2.5401C13.6907 2.44377 10.8728 2.34028 8.02204 2.6195V4.47618Z" fill="black"/>
<path d="M17.3267 16.5442C17.2967 15.0661 17.2263 13.568 17.1582 12.1191L17.1569 12.0915C17.1324 11.5662 17.1084 11.0409 17.0847 10.5156C17.0743 10.332 17.0398 10.1506 16.9822 9.97599C16.856 9.57691 16.5713 9.36649 16.2028 9.40131C15.9796 9.41975 15.5952 9.53465 15.5268 10.0953C15.5158 10.1962 15.5103 10.2976 15.5103 10.399C15.4883 12.221 15.3219 18.2447 15.3203 18.3061C15.2892 19.7542 15.257 21.251 15.2349 22.7359C15.2235 23.1449 15.2604 23.5537 15.345 23.9539C15.3859 24.1658 15.5002 24.3566 15.6678 24.4925C15.8356 24.6285 16.0458 24.7009 16.2616 24.697C16.2869 24.697 16.3125 24.6961 16.3382 24.6943C16.5514 24.6883 16.7555 24.6067 16.9141 24.4643C17.0726 24.3217 17.1754 24.1276 17.204 23.9162C17.2796 23.4764 17.321 23.0313 17.3279 22.585L17.3353 21.5609C17.3474 19.9175 17.3606 18.2184 17.3267 16.5442Z" fill="black"/>
<path d="M9.96235 9.49781H9.96168C9.82438 9.49729 9.68902 9.53012 9.56721 9.59353C9.44542 9.65693 9.34084 9.74902 9.26251 9.8618C9.12985 10.0992 9.05499 10.3645 9.04401 10.6362C9.02062 11.0043 8.99608 11.3722 8.97104 11.7492C8.88504 13.0456 8.7959 14.3863 8.75764 15.7095C8.7026 17.5913 8.68404 19.5034 8.66546 21.3527C8.65988 21.9187 8.65388 22.4847 8.64746 23.0507C8.64713 23.2824 8.67953 23.513 8.74374 23.7356C8.89387 24.2676 9.2551 24.5982 9.68635 24.5982H9.70012C10.1519 24.5903 10.5129 24.2336 10.6195 23.6892C10.6721 23.4011 10.6944 23.1084 10.6858 22.8157C10.6618 21.3129 10.6325 19.8106 10.6047 18.3832L10.5795 17.0927L10.6083 15.5599C10.6397 13.8996 10.6692 12.3302 10.693 10.753C10.7072 10.4885 10.668 10.2239 10.5779 9.97489C10.5226 9.85075 10.4375 9.74223 10.3301 9.65898C10.2227 9.57573 10.0964 9.52038 9.96235 9.49781Z" fill="black"/>
</g>
<defs>
<clipPath id="clip0_12_538">
<rect width="25.3192" height="30" fill="white"/>
</clipPath>
</defs>
</svg>
