<svg width="40" height="40" viewBox="0 0 40 40" fill="none" xmlns="http://www.w3.org/2000/svg">
<g clip-path="url(#clip0_15_875)">
<path d="M21.7667 39.852C18.106 39.7898 14.4427 39.7905 10.7856 39.6439C8.31549 39.5448 5.84079 39.3712 3.40425 38.8734C1.99997 38.5864 1.13839 37.7959 0.921438 36.3895C0.787614 35.5629 0.710198 34.7283 0.689796 33.8914C0.613418 29.2267 0.60832 24.5609 0.494081 19.8974C0.407991 16.3807 0.185416 12.8675 0.0423712 9.35203C-0.0200157 7.82044 -0.0262136 6.30534 0.352058 4.78061C0.889177 2.61685 2.30449 1.45423 4.36408 0.951049C5.18742 0.763255 6.02803 0.660124 6.87269 0.643293C9.94084 0.539293 13.0111 0.493921 16.0796 0.399391C18.3593 0.329023 20.637 0.163941 22.9165 0.140104C24.745 0.121165 26.5751 0.24688 28.4042 0.31692C29.0836 0.346285 29.74 0.56918 30.2951 0.958901C32.1611 2.22519 33.8121 3.74128 35.4624 5.26307C36.5333 6.25066 37.6243 7.22224 38.768 8.12428C39.5193 8.71677 39.8984 9.41736 39.8874 10.3463C39.8622 12.4412 39.8485 14.5362 39.8003 16.6306C39.72 20.1213 39.5781 23.6107 39.534 27.1017C39.5173 30.175 39.1257 33.2349 38.3677 36.2148C38.2622 36.6189 38.1274 37.0148 38.0065 37.4155C37.6714 38.5247 36.8887 39.1402 35.7679 39.3129C34.7707 39.4912 33.7626 39.6039 32.7504 39.6497C29.5972 39.7151 26.4426 39.717 23.2885 39.742C22.7817 39.7461 22.2747 39.742 21.7679 39.742C21.7675 39.7795 21.767 39.8158 21.7667 39.852ZM6.72222 3.05197C5.91564 3.17589 5.21786 3.23269 4.54774 3.39775C3.51531 3.65195 2.80059 4.25114 2.63022 5.37048C2.55715 5.78255 2.44698 6.18727 2.301 6.57979C1.96306 7.55628 1.97524 8.56168 2.05738 9.56381C2.29458 12.4565 2.64996 15.3426 2.79218 18.2395C2.97654 22.004 3.00622 25.7763 3.08853 29.5456C3.12902 31.3885 3.12963 33.2321 3.16568 35.0751C3.19531 36.5916 3.31381 36.7818 4.79875 36.9502C7.20204 37.2223 9.61259 37.5666 12.0241 37.5998C18.0489 37.6829 24.0768 37.6271 30.1032 37.5835C31.6204 37.5724 33.1387 37.4244 34.652 37.2894C35.6592 37.1998 35.7284 37.1263 35.9359 36.1794C36.1573 35.1719 36.3417 34.1547 36.505 33.1363C36.9177 30.5626 36.9302 27.9634 36.9824 25.3666C37.0214 23.4122 37.0811 21.4581 37.1295 19.5038C37.1962 16.7955 37.2517 14.0872 37.3321 11.3793C37.3552 11.1054 37.3056 10.8302 37.1886 10.5811C37.0716 10.332 36.891 10.1175 36.6647 9.95891C35.5878 9.10797 34.5822 8.16854 33.5481 7.26503C32.1134 6.01066 30.666 4.76999 29.2518 3.49359C28.6138 2.91824 27.881 2.83024 26.9988 2.84053C27.0317 3.4415 27.0867 3.99189 27.0846 4.54209C27.0796 5.79679 27.1188 7.05783 27.007 8.30469C26.8548 10.001 26.0948 10.7863 24.4411 11.1892C24.1978 11.2574 23.9504 11.3096 23.7004 11.3455C21.8275 11.5489 19.9573 11.7992 18.0788 11.9259C15.608 12.0926 13.1319 12.2371 10.6527 12.0092C8.86048 11.8444 7.90018 11.0983 7.38364 9.37097C6.96008 7.98 6.73786 6.53643 6.72359 5.08346C6.71914 4.44869 6.72222 3.81393 6.72222 3.05181V3.05197ZM24.2811 2.657C22.9791 2.657 21.7745 2.62911 20.5715 2.66275C17.8156 2.73981 15.0607 2.85342 12.3048 2.93865C11.2643 2.9713 10.2223 2.96198 9.18132 2.9819C8.96174 2.99816 8.74327 3.02675 8.52698 3.06748C8.64336 5.02748 8.89939 6.89798 9.46005 8.72002C9.7412 9.6343 9.90099 9.76332 10.889 9.82568C11.2537 9.84887 11.6208 9.86518 11.9859 9.85391C14.1512 9.78665 16.3203 9.76919 18.4796 9.61817C20.1312 9.50291 21.7738 9.23646 23.4138 8.99434C24.1952 8.87891 24.3089 8.74275 24.3269 7.95042C24.3598 6.49981 24.3433 5.0482 24.3394 3.59693C24.3387 3.3215 24.3063 3.0464 24.2811 2.65685V2.657Z" fill="black"/>
<path d="M23.731 16.864C25.2059 16.9083 27.9354 16.9866 30.6648 17.0763C31.0024 17.0932 31.338 17.1365 31.6689 17.2056C32.6098 17.3852 33.2627 17.9061 33.4735 18.8563C33.6365 19.5901 33.7659 20.3337 33.8615 21.0792C34.1779 23.5481 34.3708 26.0238 34.1431 28.513C34.1089 28.8459 34.0462 29.1754 33.9557 29.4978C33.6417 30.6638 32.8544 31.3553 31.6872 31.6118C31.1943 31.7283 30.69 31.7905 30.1833 31.7974C26.1282 31.7801 22.0722 31.7781 18.0187 31.6924C15.8533 31.6467 13.6896 31.4586 11.5286 31.3045C10.9401 31.2516 10.357 31.1509 9.78517 31.0031C8.02385 30.5809 7.21183 29.6423 7.08657 27.8381C7.04081 27.0573 7.04081 26.2746 7.08657 25.4941C7.16426 23.8763 7.27327 22.2599 7.37993 20.6436C7.40392 20.3662 7.44991 20.0913 7.51755 19.8211C7.79903 18.5918 8.56397 17.8751 9.83557 17.7313C11.3462 17.5615 12.8555 17.3507 14.3716 17.2624C17.0687 17.106 19.7719 17.0274 23.731 16.864ZM31.2345 19.5615C30.0673 19.4929 29.0278 19.3716 27.9896 19.3819C24.358 19.4181 20.724 19.4374 17.0962 19.5866C14.7378 19.6836 12.3873 19.985 10.0355 20.217C9.39472 20.2802 9.34141 20.3693 9.25236 20.9892C9.22464 21.1827 9.21141 21.378 9.21282 21.5734C9.22588 23.6103 9.24184 25.6472 9.26072 27.6839C9.25835 27.9352 9.27337 28.1865 9.30566 28.4358C9.31659 28.5907 9.37685 28.7383 9.47766 28.8572C9.57845 28.9762 9.71462 29.0603 9.86668 29.0976C10.1065 29.1776 10.3529 29.2366 10.603 29.274C12.79 29.4461 14.976 29.6963 17.1664 29.7461C20.8258 29.8291 24.4882 29.7902 28.1492 29.7814C28.9652 29.7727 29.7802 29.7229 30.5909 29.6322C31.5797 29.5296 31.7534 29.3628 31.7789 28.3713C31.8368 26.1104 31.8775 23.8477 31.5236 21.6005C31.4207 20.9448 31.3367 20.2864 31.2345 19.5615Z" fill="black"/>
</g>
<defs>
<clipPath id="clip0_15_875">
<rect width="40" height="40" fill="white"/>
</clipPath>
</defs>
</svg>
