<svg width="41" height="39" viewBox="0 0 41 39" fill="none" xmlns="http://www.w3.org/2000/svg">
<path d="M10.2932 9.32823C10.2932 8.78118 9.90019 8.42951 9.6193 8.02505C8.80554 6.85384 7.95924 5.70403 7.17172 4.51558C6.52946 3.59168 6.07793 2.5501 5.8433 1.45128C5.80676 1.251 5.81864 1.04497 5.87807 0.850196C5.93751 0.655422 6.04282 0.47754 6.1851 0.331275C6.32258 0.183008 6.50172 0.0793774 6.69926 0.0339401C6.89681 -0.0114971 7.10352 0.00334416 7.29247 0.0765317C7.87909 0.33421 8.2863 0.788825 8.67848 1.25456C10.2549 3.12657 11.8234 5.00527 13.384 6.89073C14.8835 8.69431 16.4046 10.4809 17.8663 12.3139C19.455 14.3058 20.9854 16.3435 22.5431 18.3599C22.9795 18.9247 23.3973 19.5063 23.867 20.0425C25.9529 22.4236 27.8237 24.9697 29.7312 27.4903C30.4685 28.4642 31.298 29.3687 32.0461 30.335C33.7927 32.5911 35.524 34.8587 37.2403 37.1377C37.6428 37.6731 37.4812 38.4597 36.9896 38.7597C36.7627 38.8781 36.5047 38.9244 36.2504 38.8924C35.9963 38.8604 35.7581 38.7512 35.5683 38.5802C35.2804 38.2933 35.0041 37.9938 34.7354 37.689C32.4429 35.0874 30.1509 32.4854 27.8595 29.883C27.73 29.7244 27.5604 29.6029 27.3681 29.531C27.1758 29.4589 26.9677 29.4391 26.7651 29.4734C26.0601 29.5902 25.3603 29.737 24.6573 29.8665C20.8323 30.5722 17.1223 30.0479 13.4901 28.7964C10.2861 27.6924 7.24013 26.2611 4.48557 24.274C3.65085 23.6871 2.86314 23.0366 2.12951 22.3287C1.56002 21.7468 1.06494 21.0972 0.655481 20.3947C-0.245088 18.8957 -0.13872 18.1978 1.09803 16.8594C3.39024 14.3872 6.00065 12.227 8.86143 10.4349C9.37052 10.1138 9.99994 9.93691 10.2932 9.32823ZM15.9028 15.6831C15.0847 14.3862 14.0382 13.2847 12.9315 12.2432C12.7468 12.0691 12.3557 12.0428 12.0692 12.0656C11.7665 12.109 11.4753 12.2107 11.2117 12.365C8.21037 13.9222 5.5127 15.9098 2.98897 18.1407C2.89041 18.2203 2.80907 18.3188 2.74979 18.4306C2.69054 18.5422 2.65456 18.6646 2.64409 18.7905C2.63363 18.9164 2.64885 19.0431 2.68888 19.1629C2.7289 19.2827 2.79286 19.3933 2.87695 19.488C3.55397 20.2483 4.33531 20.9101 5.19789 21.4538C8.1894 23.4435 11.4485 24.8663 14.8864 25.8789C17.6601 26.6953 20.4994 26.8414 23.3656 26.4744C23.5816 26.4547 23.7884 26.3788 23.9653 26.254C24.1423 26.1291 24.2828 25.9601 24.3727 25.7638C24.0912 25.3918 23.7839 24.9925 23.4837 24.5881C22.7209 23.56 21.866 22.7426 20.4166 23.1529C20.2145 23.1806 20.0097 23.1818 19.8074 23.1564C17.6384 23.1582 15.0123 21.3699 15.3878 18.0768C15.478 17.2841 15.7205 16.5091 15.9028 15.6825V15.6831Z" fill="black"/>
<path d="M32.3089 27.0461C31.569 26.6469 31.0877 26.014 30.6541 25.2887C30.5183 25.0664 30.4659 24.8031 30.5062 24.5459C30.5466 24.2888 30.6772 24.0541 30.8747 23.8835C30.9615 23.8086 31.0541 23.7405 31.1518 23.6801C32.2839 22.9863 33.3314 22.1645 34.2735 21.2309C37.9447 17.6144 37.7454 18.5004 34.2735 15.1003C32.1209 12.9936 29.3984 11.7826 26.5189 10.9594C24.7475 10.4531 22.9369 10.1391 21.0782 10.2107C20.5681 10.2305 20.0567 10.219 19.5462 10.2314C18.7741 10.2504 18.1672 9.90446 17.6667 9.36333C17.3932 9.06735 17.1732 8.7221 16.928 8.4C16.7761 8.2003 16.9614 7.74692 17.2124 7.66405C19.2039 7.0061 21.2455 7.07712 23.2797 7.32348C28.8624 7.99971 33.5549 10.527 37.6098 14.3076C38.2732 14.926 38.8185 15.6787 39.3682 16.4068C39.7859 16.9935 40.0064 17.6967 39.9982 18.4156C40.0064 18.8107 39.9942 19.2738 39.8024 19.5943C38.0093 22.5937 35.9399 25.3421 32.6748 26.9309C32.5555 26.9772 32.4333 27.0157 32.3089 27.0461Z" fill="black"/>
<path d="M25.8784 17.8099C25.8287 18.2039 25.535 19.09 25.3883 18.9086C24.2419 17.4983 22.5106 15.4343 21.4114 13.9867C21.3662 13.9106 21.3409 13.8245 21.3375 13.7362C21.3342 13.6478 21.3529 13.5601 21.3921 13.4808C21.4616 13.4121 21.5454 13.3593 21.6375 13.326C21.7295 13.2928 21.8279 13.28 21.9254 13.2884C22.8321 13.432 23.6752 13.8402 24.3483 14.4614C25.3852 15.4057 26.024 16.6542 25.8784 17.8099Z" fill="black"/>
</svg>
