<svg width="30" height="30" viewBox="0 0 30 30" fill="none" xmlns="http://www.w3.org/2000/svg">
<g clip-path="url(#clip0_12_534)">
<path d="M0.192206 14.6982C0.192206 11.8937 0.19974 9.08888 0.187415 6.28501C0.184019 5.48799 0.114729 4.69147 0.0902052 3.89433C0.0258131 1.78928 1.46848 0.244302 3.70836 0.200185C8.37716 0.108168 13.0455 -0.0925204 17.7171 0.0669334C18.2114 0.0838241 18.7078 0.049158 19.2018 0.0709647C19.5012 0.0828287 19.7981 0.131693 20.0856 0.216434C20.2115 0.252978 20.3224 0.329217 20.4019 0.433852C20.4813 0.538486 20.5249 0.665941 20.5264 0.797386C20.545 1.08264 20.4425 1.33564 20.1868 1.44228C19.8712 1.57226 19.5407 1.66231 19.203 1.71039C18.9028 1.7389 18.6008 1.73948 18.3006 1.71214C14.406 1.54475 10.5096 1.56441 6.61393 1.63487C5.56202 1.65928 4.51232 1.74294 3.46979 1.88546C2.81731 1.9713 2.22029 2.26627 1.9675 2.95539C1.8539 3.23254 1.79233 3.52833 1.78589 3.82789C1.81557 4.96915 1.88501 6.10942 1.94098 7.25005C1.95997 7.63778 1.99744 8.02513 2.00171 8.41286C2.0412 11.9506 2.09428 15.4884 2.10396 19.0264C2.11 21.2264 2.03679 23.4265 2.02446 25.6269C2.0392 26.2077 2.0854 26.7874 2.16282 27.3633C2.20306 27.7526 2.41888 27.9906 2.82472 28.0314C2.953 28.044 3.07989 28.0881 3.20741 28.0882C4.41099 28.0891 5.61495 28.1031 6.81802 28.0756C8.34544 28.0405 9.87186 27.933 11.3993 27.9224C15.1233 27.8972 18.8476 27.9002 22.5716 27.9108C23.6256 27.9138 24.6794 27.9839 25.7335 28.0182C26.1229 28.0441 26.5097 27.9375 26.831 27.7156C27.1525 27.4937 27.3897 27.1693 27.5043 26.7955C27.5505 26.6543 27.5734 26.5064 27.5723 26.358C27.558 25.2164 27.4621 24.071 27.5275 22.9347C27.7547 18.9902 27.753 15.0432 27.7518 11.0953C27.7518 10.6855 27.7576 10.2753 27.7814 9.86634C27.792 9.62933 27.8296 9.39432 27.8936 9.16589C27.9271 9.03911 27.9991 8.92597 28.0999 8.84221C28.2005 8.75845 28.3248 8.70826 28.4553 8.69861C28.7583 8.66332 29.0372 8.74098 29.1668 9.02636C29.2967 9.2965 29.3788 9.58719 29.4096 9.88552C29.5048 11.1971 29.5707 12.5109 29.6437 13.8241C29.8722 17.946 29.6389 22.0623 29.5179 26.18C29.4964 26.6103 29.4165 27.0357 29.2804 27.4445C29.1567 27.8711 28.9347 28.2627 28.6325 28.5878C28.3304 28.9129 27.9563 29.1623 27.5405 29.3162C26.737 29.6291 25.8815 29.7858 25.0196 29.778C22.2434 29.7709 19.467 29.7797 16.6907 29.7763C15.636 29.7751 14.581 29.7328 13.5269 29.7511C11.0313 29.7956 8.53624 29.8711 6.0408 29.9225C5.02964 29.9433 4.01673 29.9668 3.00671 29.931C1.40131 29.874 0.382854 28.8133 0.361725 27.1846C0.30752 23.0227 0.271669 18.8605 0.228406 14.6984L0.192206 14.6982Z" fill="black"/>
<path d="M11.822 17.9162C11.8436 17.7281 11.8824 17.5421 11.9378 17.361C12.2579 16.4708 12.5793 15.5804 12.9377 14.7054C13.0764 14.3892 13.2627 14.0962 13.4899 13.8365C17.1531 9.48186 20.8756 5.18063 24.9189 1.17033C25.0839 1.0003 25.2598 0.841174 25.4455 0.693979C25.9712 0.293265 26.5184 0.280561 27.0448 0.68367C27.3654 0.937551 27.6695 1.21168 27.9554 1.50438C28.4597 2.00467 28.947 2.52185 29.4456 3.02794C29.8898 3.47882 29.7837 4.04656 29.4415 4.42219C29.1662 4.72472 28.8706 5.00832 28.5793 5.29571C25.19 8.64071 21.7674 11.9528 18.43 15.3491C17.48 16.3376 16.3896 17.1801 15.1942 17.8494C14.6104 18.1705 14.01 18.4613 13.4135 18.7586C13.2599 18.8369 13.0985 18.8988 12.9323 18.9436C12.211 19.1297 11.7986 18.7983 11.822 17.9162ZM16.4459 15.3512L25.2339 6.2349L23.9021 4.23613C20.8863 7.48975 17.9188 10.6912 14.9071 13.9406C15.447 14.4359 15.9625 14.9086 16.4454 15.3512H16.4459ZM24.9913 3.23151L26.5923 4.85001L27.8292 3.7492C27.2955 3.12235 26.8039 2.5448 26.2916 1.94291L24.9913 3.23151ZM14.1317 15.2266C13.9699 15.6032 13.8492 15.8839 13.7304 16.1607L14.2177 16.706L14.9613 16.2718L14.1317 15.2266Z" fill="black"/>
</g>
<defs>
<clipPath id="clip0_12_534">
<rect width="29.8064" height="30" fill="white"/>
</clipPath>
</defs>
</svg>
