<svg width="21" height="19" viewBox="0 0 21 19" fill="none" xmlns="http://www.w3.org/2000/svg">
<g clip-path="url(#clip0_12_543)">
<path d="M0.422107 9.79343C0.481057 8.5152 0.54485 7.23721 0.596137 5.95875C0.639171 4.88335 0.663943 3.80737 0.703675 2.73185C0.721714 2.24498 0.755509 1.75809 0.784041 1.27193C0.798189 1.03087 0.886038 0.818897 1.13221 0.75489C1.6333 0.624265 2.1371 0.447217 2.64678 0.418717C4.47919 0.31588 6.31349 0.252467 8.14873 0.201642C10.2254 0.144405 12.3038 0.0591392 14.3797 0.0947642C16.0507 0.124214 17.7198 0.306025 19.388 0.443419C20.01 0.4946 20.2929 0.872936 20.2695 1.45469C20.2006 3.17906 20.1541 4.90425 20.0829 6.62862C19.9768 9.18495 19.8597 11.7409 19.7437 14.2968C19.6995 15.2706 19.6343 16.2436 19.5989 17.218C19.5624 18.2256 19.3004 18.4412 18.3202 18.4518C16.1626 18.4742 14.005 18.5424 11.8483 18.6021C10.5782 18.6377 9.3085 18.6901 8.0387 18.7388C5.88262 18.8212 3.72664 18.9049 1.57071 18.9902C1.42923 18.9957 1.28772 18.9938 1.14707 18.9882C0.400287 18.9586 0.0724304 18.6475 0.0874038 17.8901C0.112752 16.6108 0.166941 15.3319 0.226834 14.0536C0.293212 12.6335 0.379527 11.2144 0.457223 9.79497L0.422107 9.79343ZM18.1553 17.1459C18.4392 15.4093 18.9308 2.91639 18.7547 2.04084C18.4017 2.00985 18.0429 1.96959 17.6829 1.94822C16.0729 1.85405 14.4621 1.6853 12.8524 1.69313C10.3318 1.7056 7.81172 1.8373 5.29148 1.92137C4.13052 1.96008 2.96991 2.00546 1.84785 2.04643C1.73526 7.24174 1.62283 12.4328 1.50929 17.6755L18.1553 17.1459Z" fill="black"/>
</g>
<defs>
<clipPath id="clip0_12_543">
<rect width="20.2788" height="19" fill="white"/>
</clipPath>
</defs>
</svg>
