<svg width="21" height="19" viewBox="0 0 21 19" fill="none" xmlns="http://www.w3.org/2000/svg">
<g clip-path="url(#clip0_12_546)">
<path d="M0.422107 9.79343C0.481057 8.5152 0.54485 7.23721 0.596137 5.95875C0.639171 4.88335 0.663943 3.80737 0.703675 2.73185C0.721714 2.24498 0.755509 1.75809 0.784041 1.27193C0.798189 1.03087 0.886038 0.818897 1.13221 0.75489C1.6333 0.624265 2.1371 0.447217 2.64678 0.418717C4.47919 0.31588 6.31349 0.252467 8.14873 0.201642C10.2254 0.144405 12.3038 0.0591392 14.3797 0.0947642C16.0507 0.124214 17.7198 0.306025 19.388 0.443419C20.01 0.4946 20.2929 0.872936 20.2695 1.45469C20.2006 3.17906 20.1541 4.90425 20.0829 6.62862C19.9768 9.18495 19.8597 11.7409 19.7437 14.2968C19.6995 15.2706 19.6343 16.2436 19.5989 17.218C19.5624 18.2256 19.3004 18.4412 18.3202 18.4518C16.1626 18.4742 14.005 18.5424 11.8483 18.6021C10.5782 18.6377 9.3085 18.6901 8.0387 18.7388C5.88262 18.8212 3.72664 18.9049 1.57071 18.9902C1.42923 18.9957 1.28772 18.9938 1.14707 18.9882C0.400287 18.9586 0.0724304 18.6475 0.0874038 17.8901C0.112752 16.6108 0.166941 15.3319 0.226834 14.0536C0.293212 12.6335 0.379527 11.2144 0.457223 9.79497L0.422107 9.79343ZM18.1553 17.1459C18.4392 15.4093 18.9308 2.91639 18.7547 2.04084C18.4017 2.00985 18.0429 1.96959 17.6829 1.94822C16.0729 1.85405 14.4621 1.6853 12.8524 1.69313C10.3318 1.7056 7.81172 1.8373 5.29148 1.92137C4.13052 1.96008 2.96991 2.00546 1.84785 2.04643C1.73526 7.24174 1.62283 12.4328 1.50929 17.6755L18.1553 17.1459Z" fill="black"/>
<path d="M1.9585 4.92781C2.3483 3.86986 3.12498 2.71942 4.17715 1.58344C4.43434 1.30577 4.73695 1.03134 4.95896 0.860076C5.18097 0.688811 5.32605 0.641117 5.23153 1.33196C4.67459 5.40259 4.10974 6.89627 3.74265 7.67166C3.46953 8.24857 3.18066 8.82716 2.93667 9.59749C2.61661 10.608 2.39812 11.3304 2.51902 11.8384C2.83608 13.1707 5.02417 8.8445 6.05949 7.65215C6.63442 6.99003 8.39172 5.37584 9.50325 4.04041C10.0744 3.35418 10.2616 2.61681 10.384 2.51925C10.425 2.48651 10.3613 2.80325 9.51424 4.42846C8.66722 6.05368 7.02301 9.0584 6.12764 10.7732C4.83086 13.2568 4.64609 13.8856 4.32882 14.536C3.88789 15.4399 4.10828 16.055 4.10754 16.1764C4.10582 16.4614 5.51362 14.0027 7.68172 10.7328C9.60848 7.8268 11.431 6.5205 12.259 5.8246C14.0402 4.32753 14.5084 3.2455 15.1451 2.49757C15.7131 1.83037 16.22 1.26837 16.4889 1.05085C16.5825 0.975148 16.3211 1.55309 15.1583 3.77448C14.1246 5.74932 12.2546 9.47753 11.2588 11.4655C10.0502 13.8784 9.58165 14.9407 9.28636 15.7652C9.23466 15.9096 9.18891 16.0535 9.47833 15.7219C9.76776 15.3902 10.3964 14.5794 11.8325 12.9932C13.2687 11.407 15.4932 9.06997 16.2523 8.81993C17.0114 8.5699 16.2376 10.4777 15.6698 12.1759C14.1082 16.8458 14.2197 17.3557 14.1706 17.4771C13.9511 18.0199 15.2382 15.9668 16.0244 15.0715C16.3167 14.7586 16.6113 14.5158 17.0971 14.1089C17.4378 13.7975 17.9697 13.2728 18.5178 12.7323" stroke="black" stroke-width="2" stroke-linecap="round"/>
</g>
<defs>
<clipPath id="clip0_12_546">
<rect width="20.2788" height="19" fill="white"/>
</clipPath>
</defs>
</svg>
