<svg width="29" height="32" viewBox="0 0 29 32" fill="none" xmlns="http://www.w3.org/2000/svg">
<path d="M6.87427 2.9323C5.94072 2.9323 5.00717 2.9323 4.29286 3.16568C0.841333 4.29341 1.68789 11.2494 2.07922 14.2363C2.46906 17.2117 2.63086 19.7362 3.0222 22.096C3.32909 23.9466 3.25794 25.5591 3.72708 26.4997C4.81926 28.6895 7.33633 29.1754 11.1719 29.727C16.803 30.5369 21.0142 29.6516 21.9549 29.3381C23.9562 28.6709 25.4132 26.5162 26.5943 24.6279C27.135 23.7634 27.1483 16.5159 26.6815 6.1455C26.5147 2.43979 25.2812 1.99875 21.9996 1.75829C18.7181 1.51783 13.1168 1.51783 9.99788 1.59562C6.87898 1.67342 6.41221 1.82901 4.98831 1.98932" stroke="black" stroke-width="2" stroke-linecap="round"/>
<path d="M13.0037 8.11865C13.0037 9.98575 13.0037 12.8147 13.0815 16.3438C13.1593 18.0058 13.3148 19.4061 13.395 20.3609C13.4752 21.3156 13.4752 21.7824 13.4752 22.2633" stroke="black" stroke-width="2" stroke-linecap="round"/>
<path d="M6.40283 14.248H20.076" stroke="black" stroke-width="2" stroke-linecap="round"/>
</svg>
