<svg width="414" height="47" viewBox="0 0 414 47" fill="none" xmlns="http://www.w3.org/2000/svg">
<path d="M14.2334 4.28609C10.8687 4.28609 4.74325 4.50995 3.38994 4.96105C2.7082 5.1883 2.03664 5.41215 1.69068 7.43024C-0.0693808 17.6972 2.02307 21.4483 2.5861 26.5292C3.36397 33.5488 3.14913 38.8751 4.05133 40.2284C4.95354 41.5818 6.31024 43.1691 8.00272 44.5258C9.20382 45.4886 10.8348 45.2109 19.1277 45.5501C26.7434 45.8616 41.2995 45.6654 50.698 45.4416C60.0966 45.2177 63.9021 44.77 92.9491 44.5394C121.996 44.3087 176.169 44.3087 204.524 44.1968C232.879 44.0849 233.774 43.861 235.243 43.7457C241.464 43.2572 251.344 42.952 263.127 43.5151C279.016 44.2743 290.539 43.4065 292.679 43.0673C297.946 42.2327 311.011 42.2737 319.586 41.7106C323.283 41.4678 326.491 41.3715 330.982 41.0323C340.818 40.2894 347.975 40.6931 354.924 40.3539C373.046 39.4695 385.962 40.4625 388.547 40.8017C397.424 41.9667 400.201 42.043 403.592 42.3856C405.419 42.57 406.991 42.952 408.232 42.6162C410.93 41.8866 410.159 37.5388 410.953 34.5981C411.96 30.8671 411.746 27.5942 412.309 22.5201C413.162 14.8333 412.201 9.04132 411.526 7.68801C409.954 4.53738 406.333 3.83838 402.497 3.16003C397.673 2.30698 392.101 0.894342 387.472 1.00627C384.391 1.08074 376.988 1.79655 366.819 2.24765C356.374 2.71102 347.317 3.3771 341.785 3.71967C340.524 3.79775 339.855 4.05545 328.652 4.17077C317.449 4.28609 295.735 4.28609 283.989 4.39802C268.395 4.54662 262.089 5.41215 255.075 5.75472C247.816 6.10921 237.478 7.21656 226.028 7.78977C218.878 8.14768 203.154 6.56535 193.45 5.53086C191.069 5.27703 186.568 4.96444 181.145 4.85251C178.388 4.79561 170.552 4.28609 159.251 4.17416C155.112 4.13317 154.218 3.83838 145.25 3.72306C136.282 3.60774 119.269 3.60774 110.057 3.49581C100.845 3.38389 99.9496 3.16003 86.9524 3.04471C73.9553 2.92939 48.8835 2.92939 35.6319 2.81746C21.7088 2.48168 20.3453 2.02719 17.9846 1.68801C16.2955 1.57269 13.6093 1.57269 10.1633 2.25104" stroke="black" stroke-width="2" stroke-linecap="round"/>
</svg>
