<svg width="411" height="49" viewBox="0 0 411 49" fill="none" xmlns="http://www.w3.org/2000/svg">
<path d="M10.1173 3.8202C7.53232 4.01766 4.74391 4.8135 2.44617 5.80978C1.21994 6.34147 1.14172 12.347 1.04299 20.1228C0.928818 29.1145 0.938272 40.3089 2.43121 42.6066C3.98697 45.001 7.11346 45.5027 17.6538 45.8049C21.0789 45.9031 28.4035 46.3045 38.5698 46.2058C45.827 46.1353 50.1842 45.3112 65.1105 45.2065C68.7576 45.1809 76.2672 45.7062 87.0348 45.8049C90.8924 45.8403 91.4837 46.1011 104.032 46.2028C116.579 46.3045 141.065 46.3045 153.975 46.2058C169.872 46.0842 175.052 45.3112 178.744 45.0091C182.262 44.7211 185.823 44.1145 195.971 43.8123C199 43.7221 201.973 43.3127 205.56 43.2139C207.589 43.1581 217.261 42.7143 231.517 42.6156C237.685 42.5729 246.001 42.1159 257.367 42.0172C261.428 41.9819 262.019 41.721 267.162 41.6193C281.978 41.3262 292.937 41.715 295.124 42.0142C299.69 42.6388 303.295 42.7143 306.598 43.3097C313.76 44.6006 323.053 44.306 334.488 44.6081C339.436 44.7389 342.596 45.5027 352.903 46.2028C360.405 46.7124 374.441 46.3045 381.96 46.4033C391.68 46.5309 394.858 47.2978 401.227 47.4025C403.256 47.4359 404.438 46.7054 405.533 46.1101C407.97 44.7848 408.429 41.5295 409.129 37.0567C410.782 26.495 408.632 14.8901 409.228 7.52113C409.337 6.17032 406.259 2.91302 404.637 2.91302C401.137 2.91302 373.616 3.41929 359.859 3.81721C354.789 3.96386 353.606 4.21513 347.072 4.31685C340.538 4.41857 328.69 4.41857 321.994 4.22111C314.095 3.98815 307.561 3.02437 298.792 2.62645C288.001 2.13678 276.811 1.63017 273.314 1.32799C265.093 0.617698 252.278 1.22327 248.386 1.62418C247.082 1.75844 245.313 2.21657 236.104 2.51875C226.895 2.82092 210.308 3.01839 201.369 3.02138C190.034 3.02517 186.852 4.01168 175.136 5.90852C153.416 9.42491 149.957 5.61531 146.956 5.01994C143.156 4.26602 139.581 3.8202 136.685 3.22482C135.784 3.03963 134.602 2.82691 128.167 2.72518C121.731 2.62346 110.081 2.62346 103.685 2.52473C93.6984 2.37059 88.1209 1.63017 82.0444 1.32799C74.1906 0.937424 62.1875 1.22327 54.2292 1.52545C48.223 1.7535 41.8429 2.42001 36.7657 2.72219C35.4583 2.82092 34.471 3.01839 30.0131 3.12011C25.5552 3.22183 17.6568 3.22183 9.51891 3.22183" stroke="black" stroke-width="2" stroke-linecap="round"/>
</svg>
