<svg width="40" height="23" viewBox="0 0 40 23" fill="none" xmlns="http://www.w3.org/2000/svg">
<g clip-path="url(#clip0_12_501)">
<path d="M20.4495 0.0315312C24.0118 0.131659 27.4206 0.91854 30.5887 2.56987C32.9166 3.77405 35.0512 5.32283 36.9215 7.16449C37.4776 7.7458 38.0023 8.35684 38.493 8.99496C39.0989 9.74013 39.2007 10.6612 39.2416 11.566C39.2356 11.9698 39.1181 12.364 38.9022 12.7046C36.8381 16.1585 34.136 18.9196 30.4368 20.6272C25.2047 23.0423 19.8409 23.5988 14.3068 21.8704C10.2473 20.6019 6.4542 18.7922 3.11647 16.0956C2.168 15.3291 1.31034 14.4842 0.711905 13.4115C0.479979 12.9659 0.276585 12.5059 0.102975 12.0343C-0.101547 11.5238 0.0240385 11.0283 0.292205 10.5887C0.511533 10.2504 0.763904 9.93497 1.0456 9.64709C3.03052 7.49958 5.24349 5.57723 7.64497 3.9144C9.88754 2.36595 12.4139 1.28099 15.0771 0.722585C16.8384 0.345938 18.617 -0.04698 20.4495 0.0315312ZM2.40532 11.7653C3.00461 12.7993 3.91352 13.4329 4.82433 14.06C8.00243 16.2481 11.4856 17.7599 15.1967 18.7598C19.1014 19.812 22.9373 19.5035 26.7387 18.2089C30.572 16.9028 33.5647 14.4505 36.1347 11.3972C36.2087 11.328 36.261 11.2386 36.2854 11.14C36.2951 10.9498 36.3322 10.6949 36.2307 10.5773C35.0475 9.20597 33.8384 7.85537 32.326 6.8323C25.3712 2.1301 18.0939 1.84734 10.6294 5.39902C7.71534 6.78542 5.18471 8.80579 2.82006 11.01C2.61554 11.1992 2.53452 11.5201 2.40448 11.7653H2.40532Z" fill="black"/>
<path d="M25.2357 10.9677C25.2508 11.9447 24.9056 12.8927 24.2666 13.6289C22.9548 15.1481 21.3377 16.0327 19.2689 15.9014C18.5917 15.8697 17.9305 15.6843 17.3348 15.3591C16.7391 15.0338 16.2244 14.5771 15.8293 14.0233C15.4342 13.4694 15.169 12.8329 15.0536 12.1613C14.9382 11.4897 14.9755 10.8005 15.1629 10.1455C15.3837 9.37212 15.7299 8.64063 16.1877 7.9806C18.2324 5.10007 22.0089 5.55522 23.8741 7.2944C24.8974 8.24882 25.2567 9.47408 25.2357 10.9677ZM19.9861 9.25669C19.0694 9.20757 18.235 9.67276 18.0358 10.2585C17.7994 10.9538 17.8153 11.6454 18.3181 12.2423C18.4459 12.3945 18.6019 12.5202 18.7773 12.6124C19.1312 12.8056 19.5321 12.8938 19.9338 12.8668C20.3356 12.8399 20.7212 12.6989 21.0463 12.4602C22.2368 11.6587 22.1519 10.1912 20.879 9.57229C20.5895 9.44508 20.291 9.33961 19.9861 9.25669Z" fill="black"/>
</g>
<defs>
<clipPath id="clip0_12_501">
<rect width="39.3908" height="23" fill="white"/>
</clipPath>
</defs>
</svg>
