<svg width="40" height="36" viewBox="0 0 40 36" fill="none" xmlns="http://www.w3.org/2000/svg">
<g clip-path="url(#clip0_12_518)">
<path d="M24.5439 35.7813C20.8681 35.7813 17.1921 35.7634 13.5165 35.787C10.5614 35.806 7.60754 35.8914 4.65272 35.9118C3.82142 35.9118 2.99125 35.8495 2.16922 35.7261C0.398481 35.4722 -0.306051 34.4259 0.283636 32.7378C0.686875 31.607 1.21384 30.524 1.85493 29.5085C4.57115 25.159 8.5233 22.3346 13.2598 20.515C15.8311 19.5067 18.564 18.9702 21.3268 18.9313C25.4573 18.8955 29.2597 19.9413 32.5068 22.6596C34.7235 24.4899 36.5352 26.7592 37.8271 29.3238C38.1868 30.0406 38.5919 30.7407 38.8801 31.4855C39.1566 32.1731 39.3499 32.8913 39.456 33.6245C39.5979 34.7231 38.9843 35.4515 37.885 35.5896C37.118 35.6936 36.3453 35.7514 35.5711 35.7628C31.8955 35.7795 28.2195 35.7706 24.5439 35.7706V35.7813ZM36.6199 33.1001C36.6341 32.9832 36.633 32.865 36.6163 32.7485C35.4455 29.7153 33.8277 26.9737 31.3283 24.8263C29.4001 23.1696 27.2371 21.9774 24.6678 21.6541C21.7071 21.2817 18.7734 21.3597 15.8796 22.1732C10.4049 23.712 6.03677 26.7412 3.04552 31.6246C2.70517 32.18 2.43501 32.7781 2.12204 33.3744C2.21715 33.4263 2.3164 33.4703 2.41874 33.5061C3.44297 33.7307 4.46435 33.5986 5.49731 33.541C7.64399 33.4209 9.79657 33.3693 11.9469 33.3583C18.9821 33.3221 26.0174 33.3248 33.0527 33.2913C34.2237 33.2851 35.3928 33.1686 36.6204 33.1001H36.6199Z" fill="black"/>
<path d="M20.532 0.117425C23.3641 0.0486059 25.7303 1.39715 27.5267 3.84799C27.9501 4.42583 28.4611 4.96231 28.7704 5.59608C29.4615 7.01264 30.034 8.46786 29.6667 10.1212C29.3218 11.6737 28.8721 13.1687 27.8701 14.4412C26.0881 16.7017 23.8161 18.0992 20.9125 18.4467C18.2989 18.7596 15.8137 18.3734 13.4934 17.1465C11.1036 15.883 9.74393 13.8384 9.25029 11.2114C8.5073 7.25679 10.5811 3.71003 13.8533 1.8243C15.8334 0.68285 17.9716 0.107545 20.532 0.117425ZM26.7375 8.15193C26.8673 7.15498 26.4674 6.3588 25.8476 5.63327C25.6058 5.35013 25.3872 5.04637 25.1355 4.7726C24.2245 3.78168 23.1856 2.99774 21.8038 2.79028C19.8665 2.47043 17.8776 2.73052 16.0886 3.53772C13.8524 4.56363 12.1843 6.12771 11.8 8.72842C11.3517 11.7623 12.921 14.4774 15.7121 15.3737C17.3846 15.8952 19.1507 16.0484 20.8883 15.8228C23.2637 15.5515 26.0599 13.1156 26.4375 10.6153C26.5609 9.79753 26.6388 8.97275 26.7375 8.15111V8.15193Z" fill="black"/>
</g>
<defs>
<clipPath id="clip0_12_518">
<rect width="39.6259" height="36" fill="white"/>
</clipPath>
</defs>
</svg>
