<svg width="30" height="28" viewBox="0 0 30 28" fill="none" xmlns="http://www.w3.org/2000/svg">
<g clip-path="url(#clip0_12_522)">
<path d="M16.3627 0.022995C19.5725 0.0912132 21.9354 1.50773 23.3801 4.39135C24.149 5.92575 24.8588 7.48993 25.6297 9.02331C25.9428 9.64135 26.3035 10.2339 26.7087 10.7955C27.3221 11.6499 26.9339 12.898 25.9165 13.1259C25.3015 13.2533 24.6795 13.3438 24.0536 13.3967C22.6536 13.5367 21.2513 13.6541 19.8499 13.7806C19.8072 13.789 19.7637 13.792 19.7203 13.7898C18.8898 13.6508 18.1716 13.994 17.4172 14.2651C16.2667 14.6663 15.0405 14.8006 13.8308 14.6576C12.3583 14.5066 10.9832 14.1231 9.71592 13.3451C9.52932 13.2305 9.26425 13.2362 9.03296 13.2043C7.82956 13.0388 6.66426 13.3496 5.4846 13.4898C5.09634 13.5328 4.70554 13.5486 4.31508 13.5372C3.53782 13.5204 2.98716 12.7216 3.43247 12.0099C4.47643 10.3415 5.06849 8.45825 5.95034 6.71321C6.98288 4.66985 8.43318 2.99749 10.3693 1.76753C11.6974 0.929963 13.1916 0.392839 14.748 0.193645C15.2837 0.120718 15.8242 0.078995 16.3627 0.022995ZM8.9874 7.64892C8.67005 9.48407 9.8662 11.5334 11.6699 12.1962C12.7931 12.6058 13.9884 12.7793 15.1814 12.7062C17.0835 12.602 18.4929 11.6489 19.5049 10.0765C19.8671 9.50302 20.0584 8.83762 20.056 8.15876C17.9972 7.47149 16.152 6.56887 15.2658 4.2954C13.6821 6.52611 11.3928 7.21377 8.9874 7.64892Z" fill="black"/>
<path d="M18.6006 27.7961C15.7999 27.7961 12.999 27.7826 10.1984 27.8005C7.94296 27.8149 5.68772 27.8788 3.43249 27.8955C2.84732 27.8928 2.26318 27.846 1.68501 27.7555C0.346546 27.5615 -0.190668 26.7677 0.25299 25.487C0.557346 24.6275 0.95516 23.804 1.43924 23.0318C3.47715 19.7438 6.44074 17.5901 10.0005 16.2213C11.7816 15.5208 13.666 15.1211 15.5775 15.0384C18.0249 14.9454 20.3775 15.2431 22.5599 16.4392C24.4994 17.5023 26.0647 18.9774 27.3656 20.7591C28.2967 22.0346 28.9386 23.4627 29.5921 24.8837C29.7451 25.2678 29.8391 25.6729 29.8714 26.0853C29.9822 26.9795 29.5185 27.5639 28.6232 27.6574C27.9557 27.7271 27.2833 27.7809 26.6128 27.7846C23.9425 27.7988 21.272 27.7904 18.6016 27.7904L18.6006 27.7961ZM1.67398 25.9916C1.74182 26.0211 1.81132 26.0466 1.88215 26.0679C2.65649 26.2422 3.42932 26.1349 4.20988 26.0911C5.78953 26.002 7.37324 25.9617 8.95569 25.9536C14.1877 25.9264 19.42 25.9282 24.652 25.9047C25.605 25.9005 26.5579 25.8302 27.5105 25.7843C27.5837 25.7695 27.6537 25.7425 27.7181 25.7046C27.7272 25.6237 27.7479 25.5754 27.7346 25.5399C26.8451 23.1599 25.5723 21.0329 23.6161 19.3739C22.479 18.4096 21.2246 17.6325 19.758 17.2769C17.5536 16.7498 15.2588 16.73 13.0458 17.2187C9.03922 18.0714 5.69823 20.0375 3.21121 23.3513C2.60062 24.1646 2.03119 25.01 1.67398 25.9908V25.9916Z" fill="black"/>
</g>
<defs>
<clipPath id="clip0_12_522">
<rect width="29.958" height="28" fill="white"/>
</clipPath>
</defs>
</svg>
