<svg width="30" height="27" viewBox="0 0 30 27" fill="none" xmlns="http://www.w3.org/2000/svg">
<g clip-path="url(#clip0_12_526)">
<path d="M14.7448 13.9004C12.6081 13.7866 10.7046 13.4233 9.11674 12.1024C7.96235 11.1419 7.27817 9.89843 6.99697 8.44244C6.3818 5.26122 8.13284 2.50128 10.7635 1.14449C12.5959 0.199366 14.5258 -0.166149 16.5769 0.150693C18.3273 0.420944 19.6077 1.40798 20.6445 2.77141C20.9955 3.23318 21.4076 3.67182 21.6519 4.18708C22.1562 5.25264 22.5852 6.34571 22.2941 7.58771C22.0217 8.74921 21.6845 9.86989 20.9258 10.8192C19.5936 12.4859 17.9104 13.5444 15.753 13.7797C15.3679 13.8215 14.9848 13.8715 14.7448 13.9004ZM8.8659 7.76921C9.09724 9.49219 9.95091 10.7262 11.5472 11.3637C12.193 11.6001 12.8648 11.7591 13.5482 11.8374C15.7555 12.1494 17.6501 11.577 19.0537 9.75803C19.6854 8.97647 19.993 7.98336 19.9134 6.98267C18.1272 6.65177 16.5112 6.05338 15.2018 4.7506C13.5143 6.66697 11.2792 7.36773 8.8655 7.76921H8.8659Z" fill="black"/>
<path d="M18.4447 26.7877C15.7524 26.7877 13.0601 26.7739 10.3681 26.7917C8.04431 26.8071 5.72128 26.8737 3.39713 26.884C2.75223 26.8883 2.10866 26.8249 1.47707 26.6948C0.296347 26.447 -0.0844661 25.7811 0.212602 24.6102C0.448468 23.6809 0.930394 22.8645 1.43814 22.0663C3.50037 18.8198 6.4523 16.6948 10.0063 15.3332C11.9353 14.5782 13.9854 14.1776 16.0574 14.1506C19.059 14.1282 21.8463 14.8538 24.2401 16.7905C25.9429 18.1492 27.3392 19.8504 28.3382 21.7835C28.6332 22.3565 28.9489 22.9232 29.1874 23.5196C29.3987 24.0337 29.5499 24.5704 29.6381 25.1191C29.765 25.973 29.3016 26.543 28.4507 26.6456C27.8537 26.7231 27.2527 26.7662 26.6506 26.7747C23.9153 26.7882 21.18 26.7807 18.4447 26.7807V26.7877ZM27.5087 24.7531C27.5186 24.6401 27.5372 24.593 27.5238 24.5576C26.6455 22.2327 25.4002 20.1477 23.4828 18.518C22.3583 17.5625 21.1174 16.7994 19.6686 16.4235C17.7405 15.9401 15.7317 15.8685 13.7738 16.2135C8.91976 17.0128 5.04201 19.368 2.39497 23.5791C2.11339 24.0272 1.88912 24.5113 1.62328 25.0061C2.50656 25.2616 3.31074 25.1598 4.12752 25.1104C5.71537 25.0146 7.30862 24.9798 8.90025 24.9711C13.8967 24.9441 18.8935 24.9473 23.89 24.9236C25.0078 24.9183 26.1254 24.8517 27.2429 24.8099C27.3329 24.7981 27.4218 24.779 27.5087 24.7528V24.7531Z" fill="black"/>
</g>
<defs>
<clipPath id="clip0_12_526">
<rect width="29.7194" height="27" fill="white"/>
</clipPath>
</defs>
</svg>
